<svg xmlns="http://www.w3.org/2000/svg" width="129" height="20" viewBox="0 0 129 20"><g><g><path fill="#262d33" d="M6.107 19.001L2.147 4.177.4 4.001V1.94h6.867V4l-1.84.27 2.004 8.297.364 1.523h.07l.433-1.523 3.375-10.63h2.52l3.504 10.923.41 1.347h.07l.352-1.347 2.074-8.59L18.658 4V1.94h6.738V4l-1.629.176-4.008 14.824h-3.093L13.43 9.03l-.41-1.407h-.07l-.457 1.453-3.27 9.926zm20.332 0v-2.05l1.652-.352V8.736l-1.828-.352V6.322h5.25v10.277l1.64.352V19zm1.535-15.363V.72h3.54v2.918zm6.14 15.363v-2.05l1.653-.352V3.134l-1.828-.352V.72h5.25v15.879l1.652.352V19zm7.665 0v-2.05l1.652-.352V3.134l-1.828-.352V.72h5.25v15.879l1.652.352V19zm15.281.246c-.789 0-1.46-.152-2.016-.457a3.958 3.958 0 0 1-1.394-1.347L53.404 19H50.45V3.134l-1.817-.352V.72h5.227v6.95a3.79 3.79 0 0 1 1.348-1.173c.539-.273 1.164-.41 1.875-.41 1.539 0 2.722.61 3.55 1.828.836 1.211 1.254 2.828 1.254 4.852v.246c0 1.89-.418 3.402-1.254 4.535-.836 1.133-2.027 1.7-3.574 1.7zm-1.043-2.66c.875 0 1.504-.308 1.887-.926.383-.625.574-1.507.574-2.648v-.246c0-1.235-.195-2.211-.586-2.93-.383-.726-.996-1.09-1.84-1.09-.515 0-.957.121-1.324.364-.367.242-.656.57-.867.984v5.297c.477.797 1.195 1.195 2.156 1.195zm10.512 1.864a5.613 5.613 0 0 1-2.098-2.215c-.492-.938-.738-2.008-.738-3.211v-.47c0-1.257.234-2.37.703-3.339.469-.976 1.129-1.742 1.98-2.297.86-.562 1.872-.84 3.036-.832 1.71 0 3.02.504 3.925 1.512.907 1 1.36 2.406 1.36 4.219v1.863h-7.453l-.024.07c.063.836.34 1.524.832 2.063.492.539 1.192.808 2.098.808a6.25 6.25 0 0 0 1.746-.234 6.888 6.888 0 0 0 1.594-.715l.926 2.11c-.524.421-1.184.773-1.98 1.054-.79.274-1.696.41-2.72.41-1.218 0-2.28-.265-3.187-.797zm.738-7.032h4.23v-.305c0-.765-.16-1.37-.48-1.816-.312-.453-.828-.68-1.547-.68-.687 0-1.21.262-1.57.786-.36.515-.582 1.168-.668 1.957zm9.27 7.582v-2.05l1.64-.352V8.736l-1.816-.352V6.322h5.004l.129 1.57.023.281c.625-1.39 1.563-2.086 2.813-2.086.203 0 .422.016.656.047.242.031.46.078.656.14l-.363 3.153-1.7-.094c-.484-.023-.878.059-1.183.246a2.714 2.714 0 0 0-.797.809v6.21l1.64.353V19zm10.382 0v-2.05l1.641-.352V8.736l-1.816-.352V6.322h5.004l.129 1.57.023.281c.625-1.39 1.562-2.086 2.812-2.086.204 0 .422.016.657.047.242.031.46.078.656.14l-.363 3.153-1.7-.094c-.484-.023-.878.059-1.183.246a2.714 2.714 0 0 0-.797.809v6.21l1.64.353V19zm10.184 0v-2.05l1.653-.352V8.736l-1.829-.352V6.322h5.25v10.277l1.641.352V19zm1.535-15.363V.72h3.539v2.918zm9.211 14.813a5.614 5.614 0 0 1-2.097-2.215c-.493-.938-.739-2.008-.739-3.211v-.47c0-1.257.235-2.37.703-3.339.469-.976 1.129-1.742 1.981-2.297.859-.562 1.871-.84 3.035-.832 1.711 0 3.02.504 3.926 1.512.906 1 1.359 2.406 1.359 4.219v1.863h-7.453l-.023.07c.062.836.339 1.524.832 2.063.492.539 1.191.808 2.097.808.625 0 1.207-.078 1.746-.234a6.877 6.877 0 0 0 1.594-.715l.926 2.11c-.524.421-1.184.773-1.981 1.054-.789.274-1.695.41-2.718.41-1.219 0-2.282-.265-3.188-.797zm.739-7.032h4.23v-.305c0-.765-.16-1.37-.48-1.816-.313-.453-.829-.68-1.547-.68-.688 0-1.211.262-1.571.786-.359.515-.582 1.168-.668 1.957zm14.449 7.828c-.946 0-1.828-.09-2.649-.27a12.127 12.127 0 0 1-2.343-.773l-.036-3.586h2.379l.457 1.829c.266.132.555.238.867.316.321.078.684.117 1.09.117.766 0 1.305-.125 1.618-.375.312-.25.468-.562.468-.937 0-.352-.168-.66-.504-.926-.336-.274-.996-.512-1.98-.715-1.508-.312-2.617-.797-3.328-1.453-.703-.656-1.055-1.496-1.055-2.52 0-.695.176-1.336.527-1.922.36-.585.903-1.05 1.629-1.394.735-.352 1.672-.527 2.813-.527.953 0 1.824.093 2.613.28.797.18 1.465.419 2.004.716l.035 3.468h-2.367l-.363-1.664c-.453-.312-1.024-.468-1.711-.468-.594 0-1.055.125-1.383.375-.32.242-.48.55-.48.925 0 .329.14.625.421.891.289.258.918.496 1.887.715 1.57.36 2.715.84 3.434 1.441.718.594 1.078 1.43 1.078 2.508 0 1.18-.43 2.133-1.289 2.86-.852.726-2.129 1.09-3.832 1.09z"/></g></g></svg>