<svg xmlns="http://www.w3.org/2000/svg" width="18" height="18" viewBox="0 0 18 18"><g><g><path fill="#fff" d="M4 4.5h13c.037 0 1 .001 1 1l-1 6c-.089.491-.43 1-.936 1H6l.095 1.298c.07.331.362.702.696.702h8.816c.037 0 .074.005.109.015C16.44 14.62 17 15.246 17 16c0 .827-.673 1.5-1.5 1.5a1.502 1.502 0 0 1-1.414-2H7.914a1.502 1.502 0 0 1-1.414 2 1.498 1.498 0 1 1-.918-2.686 2.102 2.102 0 0 1-.382-.824l-.391-1.863L2 1.5H.458C.205 1.5 0 1.218 0 .963A.46.46 0 0 1 .458.5h2.104c.21 0 .394.145.444.352z"/></g></g></svg>